<?xml version="1.0" encoding="UTF-8" standalone="no"?>
<!-- Created with Inkscape (http://www.inkscape.org/) -->

<svg
   width="114.81395mm"
   height="18.512592mm"
   viewBox="0 0 114.81395 18.512592"
   version="1.1"
   id="svg1"
   xml:space="preserve"
   xmlns="http://www.w3.org/2000/svg"
   xmlns:svg="http://www.w3.org/2000/svg"><defs
     id="defs1" /><g
     id="layer1"
     transform="translate(-55.400708,-99.470405)"><path
       style="fill:#b08a3e;fill-opacity:1;stroke-width:0.5"
       d="m 110.3527,115.52881 c -1.30969,-1.3452 -2.40785,-2.47436 -2.44035,-2.50924 -0.0325,-0.0349 0.39095,-0.52299 0.94101,-1.0847 l 1.0001,-1.02129 -0.70294,-0.67098 -0.70294,-0.67098 -1.02871,1.03478 -1.02872,1.03479 H 89.591016 72.791879 l -0.551073,0.54083 -0.551072,0.54084 -0.346904,-0.37412 c -0.190797,-0.20577 -0.346904,-0.42528 -0.346904,-0.48781 0,-0.0625 0.297957,-0.40545 0.662126,-0.76203 l 0.662126,-0.64834 h 16.497189 16.497193 l -0.58426,-0.59531 -0.58425,-0.59531 H 85.754739 67.363432 l -1.07302,1.06744 -1.073019,1.06745 -1.04641,-0.25906 c -0.575526,-0.14248 -1.522661,-0.39022 -2.104744,-0.55054 -4.4923,-1.23731 -5.915983,-1.6178 -6.316927,-1.68826 -0.49003,-0.0861 -0.459305,-0.24602 0.06615,-0.34424 0.236471,-0.0442 0.846666,-0.20022 1.355989,-0.3467 1.240696,-0.35683 3.17542,-0.88631 4.630209,-1.26716 0.654843,-0.17143 1.686977,-0.44207 2.293631,-0.60143 l 1.103006,-0.28973 1.082569,1.07694 1.08257,1.07695 h 18.392003 18.392001 l 0.48987,-0.50167 c 0.26943,-0.27592 0.48987,-0.54381 0.48987,-0.59531 0,-0.0515 -7.398998,-0.0936 -16.442213,-0.0936 H 72.242751 l -0.623412,-0.63293 c -0.342877,-0.34811 -0.623413,-0.69416 -0.623413,-0.769 0,-0.0748 0.165105,-0.29425 0.366899,-0.48758 l 0.366899,-0.35151 0.494601,0.5252 0.494601,0.52519 h 16.835614 16.83561 l 1.02942,1.03549 1.02942,1.03549 0.65419,-0.6611 c 0.35981,-0.36361 0.6542,-0.69723 0.6542,-0.74138 0,-0.0442 -0.41672,-0.4938 -0.92604,-0.99922 -0.50932,-0.50543 -0.92604,-0.95776 -0.92604,-1.0052 0,-0.13444 4.84386,-5.014075 4.97731,-5.014075 0.16077,0 4.94456,4.797885 4.94456,4.959135 0,0.0703 -0.42973,0.56049 -0.95496,1.08926 l -0.95497,0.96138 0.65234,0.6623 c 0.35878,0.36426 0.69221,0.6623 0.74096,0.6623 0.0487,0 0.53947,-0.44649 1.09051,-0.99219 l 1.00189,-0.99219 h 16.8462 16.84621 l 0.51145,-0.52376 0.51144,-0.52377 0.40217,0.39319 0.40216,0.39318 -0.71637,0.72538 -0.71637,0.72539 -16.44844,0.0336 -16.44845,0.0336 0.54026,0.56223 0.54026,0.56225 h 18.34779 18.34779 l 1.08586,-1.08022 1.08586,-1.08022 0.90128,0.23409 c 0.4957,0.12876 1.19894,0.3187 1.56274,0.4221 0.3638,0.10339 1.76278,0.48495 3.10885,0.8479 3.87107,1.04379 4.10104,1.11117 4.10104,1.20152 0,0.047 -0.13394,0.11562 -0.29765,0.1525 -0.44013,0.0991 -2.59827,0.67415 -4.33255,1.15433 -1.66867,0.46202 -2.44674,0.67091 -4.01882,1.07897 l -1.04226,0.27053 -1.07717,-1.07158 -1.07718,-1.07158 h -18.3527 -18.35271 l -0.52916,0.52916 c -0.29105,0.29105 -0.52917,0.55894 -0.52917,0.59532 0,0.0364 7.39879,0.0661 16.44176,0.0661 h 16.44176 l 0.71954,0.7286 0.71955,0.7286 -0.40586,0.40585 -0.40585,0.40586 -0.54456,-0.53914 -0.54456,-0.53914 H 136.2223 119.41752 l -1.04608,-1.04327 -1.04607,-1.04327 -0.70057,0.70937 -0.70057,0.70938 0.9184,0.93037 c 0.50512,0.5117 0.94057,0.99637 0.96768,1.07704 0.0557,0.16582 -4.73582,5.01491 -4.94273,5.00211 -0.0735,-0.005 -1.2052,-1.1089 -2.51488,-2.45411 z m 5.35887,-3.15893 -0.58805,-0.59918 -1.06526,1.05972 c -0.58589,0.58285 -1.11628,1.05973 -1.17864,1.05973 -0.0624,0 -0.59061,-0.48175 -1.1739,-1.07055 l -1.06053,-1.07055 -0.60744,0.60744 -0.60745,0.60745 1.7167,1.72052 1.7167,1.72051 1.71796,-1.71796 1.71796,-1.71795 z m -2.10625,-0.75353 0.65802,-0.68631 -0.69421,-0.70294 -0.69421,-0.70294 -0.69905,0.69037 -0.69905,0.69037 0.69019,0.69887 c 0.3796,0.38438 0.71046,0.69888 0.73524,0.69888 0.0248,0 0.34116,-0.30884 0.70307,-0.6863 z m 49.26717,-2.02696 c 0.43656,-0.12249 1.00211,-0.27349 1.25677,-0.33556 1.34269,-0.32723 1.71979,-0.44446 1.71979,-0.53463 0,-0.0546 -0.25301,-0.15809 -0.56224,-0.22995 -0.30923,-0.0719 -0.91943,-0.23113 -1.35599,-0.35392 -0.43656,-0.1228 -1.29977,-0.35188 -1.91823,-0.50908 l -1.12448,-0.28582 -0.69979,0.68602 -0.6998,0.68603 0.69609,0.70975 0.69609,0.70975 0.59902,-0.15994 c 0.32946,-0.088 0.9562,-0.26016 1.39277,-0.38265 z m -97.404285,-0.15911 c 0.348111,-0.34288 0.63293,-0.66823 0.63293,-0.723 0,-0.14801 -1.230152,-1.29943 -1.38828,-1.29943 -0.07487,0 -0.700992,0.14712 -1.391374,0.32694 -0.690383,0.17982 -1.776141,0.45506 -2.412794,0.61163 -1.202739,0.2958 -1.413099,0.4417 -0.79375,0.55055 0.200091,0.0352 1.078177,0.257 1.951302,0.49298 2.231888,0.60321 2.357896,0.63502 2.575143,0.6502 0.106642,0.007 0.478712,-0.267 0.826823,-0.60987 z m 45.944515,-0.0397 0.65319,-0.66317 -0.69124,-0.69125 -0.69125,-0.69125 -0.69124,0.69125 -0.69124,0.69125 0.65319,0.66317 c 0.35926,0.36474 0.68744,0.66317 0.72929,0.66317 0.0418,0 0.37004,-0.29843 0.7293,-0.66317 z m 4.42668,-0.007 0.67771,-0.67062 -0.68392,-0.6523 c -0.37616,-0.35876 -0.72359,-0.6523 -0.77208,-0.6523 -0.0485,0 -0.38133,0.29766 -0.73966,0.66146 l -0.65152,0.66147 0.65152,0.66145 c 0.35833,0.36381 0.69397,0.66146 0.74587,0.66146 0.0519,0 0.39933,-0.30178 0.77208,-0.67062 z m -8.705,-0.18927 c 0.20145,-0.21828 0.36801,-0.43932 0.37015,-0.49119 0.002,-0.0519 -0.24732,-0.33567 -0.55433,-0.63068 l -0.5582,-0.53637 -0.5957,0.59569 -0.59569,0.5957 0.58252,0.59356 c 0.63908,0.65117 0.6328,0.65176 1.35125,-0.12671 z m 12.80944,-1.05834 -0.58801,-0.59914 -0.59531,0.59531 -0.59531,0.59532 0.58801,0.59914 0.588,0.59913 0.59532,-0.59531 0.59531,-0.59531 z m -5.85803,-1.77163 c -0.0887,-0.11071 -0.39085,-0.43349 -0.67149,-0.71727 l -0.51025,-0.51598 -0.6473,0.63757 c -0.35602,0.35066 -0.6473,0.69387 -0.6473,0.76268 0,0.0688 0.28198,0.41229 0.62663,0.76328 l 0.62663,0.63816 0.69216,-0.68357 c 0.57656,-0.5694 0.66524,-0.71718 0.53092,-0.88487 z m -2.10088,-2.03176 c 0.40289,-0.41837 0.79452,-0.76067 0.8703,-0.76067 0.0758,0 0.61714,0.47687 1.20303,1.05972 l 1.06526,1.05973 0.58805,-0.59918 0.58805,-0.59918 -1.71796,-1.71796 -1.71796,-1.71796 -1.70562,1.70942 -1.70562,1.70941 0.58241,0.59241 0.58241,0.59241 0.31757,-0.28373 c 0.17466,-0.15606 0.6472,-0.62604 1.05008,-1.04442 z"
       id="path1" /></g></svg>
