<?xml version="1.0" encoding="UTF-8" standalone="no"?>
<!-- Created with Inkscape (http://www.inkscape.org/) -->

<svg
   width="152.19458mm"
   height="145.35576mm"
   viewBox="0 0 152.19458 145.35576"
   version="1.1"
   id="svg1"
   xml:space="preserve"
   xmlns="http://www.w3.org/2000/svg"
   xmlns:svg="http://www.w3.org/2000/svg"><defs
     id="defs1" /><g
     id="layer1"
     transform="translate(-15.713124,-14.899206)"><path
       style="fill:#b0893e;fill-opacity:1"
       d="m 22.632008,131.21969 c -1.123462,-1.74206 -0.801377,-3.72731 0.901423,-5.55621 1.141459,-1.22599 9.33574,-8.41456 10.526428,-9.23449 1.348337,-0.92849 1.745924,-0.70272 9.721628,5.52029 l 7.099091,5.53903 0.389656,-0.49941 c 0.214306,-0.27466 1.019558,-1.49633 1.789438,-2.71479 3.41344,-5.40228 15.086945,-22.91708 20.910655,-31.374134 l 3.22542,-4.61466 10.97697,8.39693 c -1.88187,2.0837 -22.69582,25.144404 -28.14058,30.899094 -1.55724,1.64589 -3.033089,3.2504 -3.279655,3.5656 l -0.448316,0.5731 7.207051,5.62326 c 8.13768,6.34938 8.23918,6.45914 7.5376,8.14836 -0.21678,0.52194 -1.71348,3.53342 -3.32599,6.69216 -3.74743,7.34081 -4.45893,8.12746 -7.29738,8.06824 -0.86217,-0.018 -1.23564,-0.2664 -6.945752,-4.6199 -6.28675,-4.7932 -7.012688,-5.48759 -7.40636,-7.08431 -0.223438,-0.90639 -0.04867,-3.48816 0.499918,-7.38492 0.331355,-2.35364 0.07341,-3.19553 -0.796389,-2.59932 -0.68696,0.47085 -6.97663,2.73131 -8.099405,2.91085 -1.926981,0.30814 -2.29632,0.099 -8.703074,-4.9287 -3.514421,-2.75797 -6.070389,-4.90433 -6.342377,-5.32607 z M 17.26355,41.161091 c -1.239817,-1.430116 -1.688811,-2.719017 -1.514207,-4.346766 0.173967,-1.62188 -0.147501,-1.127646 4.848951,-7.454927 0.586202,-0.742365 1.945336,-2.475713 3.02027,-3.851905 1.552143,-1.987188 2.418869,-2.86761 4.211003,-4.277736 5.112288,-4.022558 11.857741,-6.755362 15.491454,-6.276092 l 1.420148,0.187312 26.141418,20.307737 26.14141,20.307732 1.01839,-1.0599 c 1.15871,-1.20595 2.366983,-1.77234 3.718423,-1.74303 0.88905,0.0193 1.21194,0.23448 7.15738,4.77039 5.42466,4.13858 6.30902,4.88709 6.86854,5.81335 0.83363,1.38001 0.7228,2.93748 -0.33265,4.6746 l -0.79328,1.30562 26.0556,20.41875 c 24.67305,19.335274 26.07665,20.467324 26.452,21.334294 0.67876,1.5678 0.88419,3.54923 0.6408,6.1809 -0.61378,6.63667 -3.22669,13.16602 -6.87399,17.17729 -0.89322,0.9824 -2.06996,2.41986 -2.61493,3.19439 -2.74221,3.89738 -3.87999,5.15166 -5.26371,5.80277 -1.11871,0.52639 -1.61364,0.5714 -3.07041,0.27926 l -1.73672,-0.3483 -30.03837,-23.4373 -30.038353,-23.437284 1.14325,-1.45712 c 0.62899,-0.80127 1.87831,-2.31825 2.77651,-3.37091 1.66058,-1.94623 2.66428,-3.98079 3.07425,-6.23176 0.52233,-2.86781 -1.36369,-5.94949 -4.41163,-7.20843 -1.83203,-0.75671 -4.65231,-0.15597 -6.73709,1.43507 -0.53815,0.4107 -1.12694,0.78189 -1.30841,0.82486 -0.18149,0.043 -0.5067,0.36644 -0.72271,0.7188 -0.21604,0.35232 -1.38239,2.04732 -2.59195,3.7666 l -2.19919,3.12596 L 47.61652,65.169486 C 31.347912,52.455806 17.689005,41.651927 17.263343,41.160917 Z m 21.871642,3.315469 c 3.023548,1.669251 7.324736,1.99868 10.358888,0.793384 5.364535,-2.131022 8.489497,-7.66749 7.558152,-13.390709 -1.066319,-6.552644 -6.866145,-10.864409 -13.480586,-10.021873 -6.790519,0.864965 -11.328905,6.651442 -10.513593,13.404909 0.310473,2.571736 1.147879,4.574418 2.685401,6.422241 1.330716,1.599263 1.533327,1.766051 3.391738,2.792048 z m -0.5549,-7.24586 c -0.742156,-1.455284 -1.013714,-3.814251 -0.61577,-5.349082 0.432631,-1.668623 2.265973,-3.816793 3.892299,-4.560699 4.870982,-2.228064 10.073801,0.792651 10.499556,6.095958 0.297248,3.70261 -2.165307,6.878508 -5.876254,7.578466 -3.234779,0.610152 -6.450248,-0.922178 -7.899829,-3.764641 z m 7.217433,-1.071388 c 1.966097,-0.602164 2.176025,-3.563758 0.309965,-4.37293 -1.478016,-0.640903 -2.951359,0.105626 -3.297432,1.670782 -0.360341,1.629695 1.37228,3.196846 2.987467,2.702148 z m 96.802935,89.045698 c 6.10038,3.3679 13.83734,0.91907 16.87484,-5.34107 2.16692,-4.46594 1.34563,-9.896 -2.05954,-13.61692 -2.47511,-2.70462 -6.25617,-4.116 -10.05693,-3.75403 -3.49316,0.33268 -6.26701,1.84971 -8.41439,4.60189 -4.05925,5.20254 -3.28526,12.36851 1.83631,17.00147 0.16231,0.14681 0.98118,0.6457 1.81971,1.10866 z m -0.49579,-7.10655 c -0.33445,-0.63588 -0.70293,-1.85903 -0.81884,-2.71811 -0.86023,-6.37543 6.60678,-10.53183 11.72227,-6.52503 4.94961,3.87686 3.08916,11.70811 -3.0569,12.86739 -3.15726,0.59552 -6.41961,-0.91133 -7.84653,-3.62425 z m 7.2807,-1.36119 c 0.42301,-0.1945 0.88625,-0.50376 1.02942,-0.68725 0.49521,-0.63468 0.57057,-2.00025 0.1461,-2.64732 -0.93933,-1.43192 -2.89358,-1.57336 -3.9009,-0.28234 -1.44157,1.84758 0.62079,4.58458 2.72538,3.61691 z m -44.62509,-47.551294 -5.006393,-3.90621 -3.25518,4.17199 -3.25518,4.17199 5.00639,3.90622 z m -3.25518,4.172 3.25518,-4.172 -6.510363,8.34399 z m 4.05764,-12.94245 c 0.54253,-0.69534 0.88384,-1.32394 0.76795,-1.41436 -0.11473,-0.0895 -0.0255,-0.39744 0.1983,-0.68426 0.29839,-0.38243 0.29564,-0.60831 -0.0103,-0.84702 -0.32628,-0.25458 -0.52571,-0.18645 -0.91509,0.3126 -0.29047,0.37228 -0.54287,0.5166 -0.60589,0.34643 -0.0675,-0.1822 -0.47817,0.18273 -1.09417,0.97222 l -0.98616,1.26391 0.83441,0.65104 0.83439,0.65103 z m 4.09061,3.35948 c 0.49235,-0.63102 0.8013,-1.22055 0.68657,-1.31006 -0.11473,-0.0895 0.0111,-0.44437 0.27968,-0.78856 0.37977,-0.48673 0.39557,-0.69814 0.0711,-0.95132 -0.32449,-0.25318 -0.5257,-0.18645 -0.90547,0.30029 -0.26856,0.34419 -0.58216,0.55255 -0.69688,0.46303 -0.11473,-0.0895 -0.61143,0.35353 -1.10378,0.98454 l -0.89517,1.1473 0.8344,0.65104 0.8344,0.65104 z M 89.404987,41.774967 c 0.1343,-1.227236 11.197723,-0.968455 20.964743,5.987539 l 3.26148,2.3228 -4.3462,5.39598 -0.97809,1.20236 -9.466553,-7.31191 c -5.6007,-4.325947 -9.45382,-7.428245 -9.43538,-7.596769 z m 21.691783,17.001559 c 0.0168,-0.12536 0.40892,-0.68772 0.87137,-1.24977 l 4.20901,-5.21545 2.77296,2.25254 c 8.02351,6.51768 12.8271,19.04398 11.01974,18.86492 -0.55016,-0.0545 -18.91828,-14.31472 -18.87308,-14.65224 z"
       id="path1" /></g></svg>
